<?xml version="1.0" encoding="UTF-8"?>
<svg id="Layer_1" xmlns="http://www.w3.org/2000/svg" version="1.1" viewBox="0 0 1920 2293">
  <!-- Generator: Adobe Illustrator 29.5.1, SVG Export Plug-In . SVG Version: 2.1.0 Build 141)  -->
  <defs>
    <style>
      .st0 {
        fill: #fefefe;
      }

      .st1 {
        fill: #fcfcfc;
      }

      .st2 {
        fill: #fcfdfd;
      }
    </style>
  </defs>
  <path class="st0" d="M1370.6,1396.68c-24.03-2.83-45.67-10.33-65.43-22.9-29.48-18.75-52.51-43.61-69.52-74.11-18.78-33.66-30.09-69.89-36.24-107.7-5.25-32.28-9.36-64.75-14.01-97.14-.98-6.81-2.09-13.61-3.21-20.89-2.82-.17-5.26-.43-7.7-.44-15.63-.04-31.26.23-46.89-.13-7.17-.17-14.46-.89-21.44-2.48-19.89-4.53-32.12-21.38-33.19-41.72-1.28-24.42,20.33-45.06,44.18-44.48,15.88.39,31.78.48,47.67.7,2.75.04,5.51,0,8.35,0-.98-14.43-1.86-28.24-2.88-42.03-1.41-19.07-3-38.13-4.38-57.21-.42-5.83-.44-11.69-.61-17.54-.57-20.02-1.12-40.05-1.7-60.07-.55-18.91-1.13-37.83-1.67-56.74-.57-19.75-1.39-39.5-1.62-59.25-.7-60.5-1.19-121-1.71-181.5-.15-17.16,7.24-30.27,22.56-37.96,16.13-8.1,32.36-7.63,47.28,3.21,12.33,8.96,17.81,21.64,17.8,36.8-.01,28.75-.22,57.5.05,86.24.3,31.48,1.01,62.96,1.64,94.44.47,23.38,1.06,46.76,1.67,70.14.5,19.19.92,38.39,1.71,57.57.9,21.65,1.99,43.29,3.35,64.92,1.34,21.31,3.14,42.58,4.69,63.88.72,9.96,1.28,19.94,2.01,29.9.1,1.31.74,2.57,1.33,4.54,4.54,0,8.95.13,13.36-.02,14.45-.49,28.92-.91,43.36-1.69,23.31-1.26,46.6-2.78,69.89-4.22,12.76-.79,25.51-1.59,38.27-2.45,5.54-.37,11.07-.83,16.59-1.36,25.45-2.42,44.9,13.37,48.32,38.79,3.28,24.4-12.9,44.1-33.35,47.19-14.8,2.23-29.76,3.61-44.7,4.74-18.84,1.43-37.72,2.31-56.59,3.26-15,.75-30.02,1.21-45.02,1.87-12.5.54-25,1.16-37.49,1.82-1.05.06-2.07.73-4.05,1.47.56,5.28.99,10.7,1.73,16.08,3.19,23.04,6,46.15,9.84,69.09,4.68,27.97,10.66,55.7,22.12,81.84,8.12,18.52,19.18,34.97,34.72,48.37,23.52,20.27,49.52,24.48,78.48,14.1,18.67-6.69,34.65-17.56,49.31-30.59,17.53-15.57,33.45-32.68,48.34-50.77,10.61-12.9,24-18.8,40.99-18.33,21.52.6,39.75,23.84,39.64,40.53-.09,13.53-3.84,25-12.99,34.93-13.76,14.94-26.81,30.57-41.12,44.97-19.27,19.4-40.45,36.66-64.77,49.49-33.2,17.51-68.43,26.21-106.96,22.85Z"/>
  <path class="st0" d="M1002.88,1434.44c1.04,23.52.98,46.17-.95,68.9-4.58,54.09-18.6,105.97-35.25,157.29-4.97,15.31-9.97,30.62-15.5,45.74-8.23,22.51-28.69,31.57-50.08,27.85-23.16-4.02-39.43-28.22-34.07-51.09,3.03-12.95,7.35-25.61,11.21-38.35,10.72-35.34,22.91-70.29,30.05-106.6,3.04-15.47,4.7-31.25,6.21-46.96,1.09-11.33,1.34-22.78,1.16-34.17-.47-31.36-5.52-61.88-18.09-90.86-7.26-16.73-16.12-32.36-29.87-44.78-7.33-6.62-15.17-12.27-25.26-13.6-3.23-.43-6.64-.63-9.82-.08-21.08,3.6-39.12,14.12-56.57,25.7-17.01,11.28-32.15,24.79-45.55,40.21-3,3.45-4.97,7.26-5.11,11.99-.69,22.8-1.34,45.61-2.25,68.4-.92,23.05-2.12,46.08-3.18,69.12-.44,9.44-1.04,18.87-1.21,28.32-.52,30.45-28.64,51.19-57.8,42.48-14.67-4.38-30.57-20.86-29.97-40.09.52-16.72.15-33.47.7-50.19.86-26.11,2.05-52.21,3.33-78.31.64-13.01,1.83-25.99,2.7-38.99.17-2.5.55-5.17-.08-7.51-2.8-10.33-.72-20.24,1.2-30.43,1.79-9.49,2-19.29,2.79-28.96,2.09-25.44,4.17-50.88,6.14-76.33,1.41-18.27,2.36-36.58,4.02-54.82,2.29-25.1,5.05-50.16,7.61-75.24,1.89-18.48,3.57-36.99,5.74-55.44,3.46-29.44,7.19-58.85,10.93-88.25,2.8-22,5.79-43.97,8.73-65.95,2.35-17.59,4.59-35.19,7.17-52.74,2.94-20.04,26.37-38.06,49.98-33.99,21.49,3.7,41.7,22.87,36.39,55.49-4.94,30.36-9.07,60.86-13.25,91.34-3.92,28.57-7.63,57.17-11.09,85.79-2.23,18.44-3.81,36.96-5.71,55.43-2.56,24.8-5.29,49.59-7.69,74.41-1.58,16.29-2.68,32.63-4.04,48.94-.44,5.25-1.11,10.47-1.49,15.72-.21,2.94-.04,5.91-.04,9.65,11.87-6.14,22.84-12,33.98-17.53,18.09-8.97,37.16-14.41,57.35-16.25,34.15-3.11,64.25,6.77,91.01,27.57,30.57,23.77,50.55,55.16,64.24,90.88,10.48,27.34,17.72,55.49,20.12,84.77.29,3.58.73,7.15,1.13,11.52Z"/>
  <path class="st0" d="M339.87,1057.27c8.62-12.13,20.62-19.4,32.12-27.16,9.69-6.53,19.41-13.14,29.69-18.65,15.74-8.44,33.14-9.55,50.5-8.18,32.71,2.56,64.37,9.62,93.31,25.8,11.63,6.5,23.28,13.27,33.79,21.37,14.83,11.44,19.49,27.38,14.86,45.45-4.5,17.55-16.3,28-33.93,31.79-12.33,2.65-23.66.37-33.97-7.12-22.52-16.35-47.56-26.21-75.28-29.36-6.41-.73-12.12-.02-17.44,3.73-3.41,2.4-6.86,4.84-10.55,6.74-10.11,5.2-16.21,13.48-18.72,24.31-2.62,11.32-5.22,22.69-6.9,34.18-2.2,15.08,6.28,28.14,19.39,30.61,3.73.7,7.74.15,11.6-.13,17.98-1.34,35.94-3.13,53.94-4.14,35.1-1.97,63.86,10.01,83.76,39.91,6.73,10.11,9.53,21.94,11.29,33.75,4.59,30.85,1.52,60.96-10.69,89.86-14.15,33.48-37.54,58.85-68.75,77.08-25.93,15.15-54.47,22.13-83.97,25.36-14.34,1.57-28.84,2.89-43.23,2.63-39.88-.74-78.75-7.38-114.67-25.56-50.42-25.52-84.58-65.2-99.97-119.97-11.36-40.43-10.29-80.76,3.49-120.57,6.96-20.12,25.82-31.82,47.91-29.38,20.09,2.22,34.65,18.31,37.56,37.07,1.16,7.5.14,14.23-2.04,21.16-3.84,12.23-6.57,24.62-6.6,37.59-.05,23.39,7.79,44.1,20.79,63.1,11.39,16.65,27.3,27.64,45.68,35.17,20.79,8.52,42.5,12.59,65,12.88,22.36.28,44.47-.95,66-7.74,27.98-8.82,46.89-26.66,55.92-54.87,3.08-9.63,3.03-18.93.09-29.1-8.52.5-16.79.98-25.06,1.48-17.19,1.03-34.38,2.07-51.57,3.09-19.89,1.19-37.05-5.99-52.84-17.33-15.35-11.03-27.65-24.8-37.76-40.78-9.27-14.65-12.24-30.81-13.02-47.6-1.71-36.61,6.27-71.19,22.54-103.91,2.09-4.21,4.94-8.04,7.76-12.56Z"/>
  <path class="st0" d="M1663.21,976.64c-1.67-27.12-3.15-53.46-5.06-79.76-1.37-18.8-3.19-37.57-5.05-56.33-1.12-11.3-2.32-22.61-4.12-33.82-3.99-24.89,14.13-48.24,37.98-50.83,22.2-2.41,45.41,9.74,49.33,37.68,2.39,17.01,3.85,34.16,5.62,51.25,2.09,20.11,4.35,40.22,5.99,60.37,1.24,15.23,1.78,30.52,2.36,45.8.72,19.18,1.27,38.37,1.69,57.56.49,22.55,1.1,45.1,1.04,67.64-.05,18.64-.54,37.3-1.68,55.9-1.79,29.06-3.73,58.13-6.66,87.09-3.01,29.75-7.23,59.38-10.99,89.05-2.2,17.32-4.49,34.63-6.82,51.93-3.22,23.91-22.82,39.28-48.23,37.1-22.06-1.89-39.58-21.98-38.71-42.89.45-10.77,2.12-21.5,3.52-32.22,3.16-24.18,6.83-48.3,9.65-72.52,3.01-25.86,5.6-51.78,7.77-77.73,1.36-16.32,2.04-32.73,2.28-49.11.62-42.08.88-84.17,1.14-126.26.04-6.36-.69-12.73-1.06-19.9Z"/>
  <path class="st0" d="M1067.17,1550.69c-1.23-15.42-2.39-30.07-3.42-44.72-.37-5.27-.51-10.57-.61-15.86-.59-30.61-1.38-61.22-1.61-91.84-.19-24.8.14-49.61.54-74.41.28-17.51.41-35.07,1.76-52.52,2.83-36.75,37.42-49.62,62.59-38.14,16.73,7.64,26.28,25.62,25.5,45.08-.64,15.83-1.24,31.66-1.66,47.49-.65,24.47-1.31,48.95-1.63,73.43-.18,13.37.03,26.76.56,40.12.9,23.02,1.81,46.05,3.39,69.03,1.81,26.26,4.35,52.47,6.58,78.7.56,6.62,1.61,13.25,1.6,19.87-.01,22.56-18.85,41.56-41.85,42.62-22.59,1.04-43.14-15.7-45.61-37.79-2.09-18.71-3.44-37.49-5.16-56.24-.13-1.37-.55-2.71-.94-4.84Z"/>
  <path class="st1" d="M1590.68,1435.22c15.85-5.31,29.67-2.47,42.15,7.33,13.58,10.67,20.63,31.09,14.31,48.87-7.27,20.44-26.25,29.02-41.44,29.4-34.45.86-52.77-34.78-41.54-60.87,5.11-11.88,13.93-19.86,26.52-24.72Z"/>
  <path class="st2" d="M1076.71,1127.93c15.08,26.45,3.21,55.54-23.08,64.58-29.78,10.24-56.29-10.39-58.54-39.02-1.86-23.58,14.71-39.68,30.52-44.57,19.56-6.04,39.87.71,51.11,19Z"/>
</svg>